<?xml version="1.0" encoding="UTF-8"?>
<svg version="1.1" viewBox="0 0 2048 2048" width="1280" height="1280" xmlns="http://www.w3.org/2000/svg">
<path transform="translate(625)" d="m0 0h881l23 6 17 6 19 10 16 12 13 12 10 12 10 15 8 16 6 16 4 18 2 24v811h26l11 3 9 7 6 10 1 3v14l-5 10-6 7-7 4-12 2h-23v884l-2 22-5 21-6 16-10 19-9 12-9 10-2 3h-2l-1 3-11 9-13 9-17 9-19 7-25 6h-875l-25-7-21-9-16-10-10-8-10-9-12-13-12-18-8-16-7-21-3-14-1-15-1-51v-280l-15-4-19-7-16-8-13-8-12-9-10-9-16-16-11-15-8-13-10-21-6-18-5-24-1-6v-35l4-23 6-21 9-21 12-20 13-17 18-18 19-14 17-10 19-8 25-8v-421h-34l-14-3-10-5-10-9-6-9-4-10-1-16v-385l2-16 6-11 7-8 10-7 9-4 45-1 1-179 2-21 5-19 9-21 9-15 11-14 17-17 14-10 13-8 19-8z" fill="#E6F6FC"/>
<path transform="translate(625)" d="m0 0h881l23 6 17 6 19 10 16 12 13 12 10 12 10 15 8 16 6 16 4 18 2 24v809l-1 2h-59l-1-816-3-19-6-15-8-13-9-10-9-8-16-9-10-4-17-3-80-1h-656l-124 1-17 5-14 7-13 10-7 7-9 13-7 15-3 13-1 16-1 173h547l-5 10-10 18-9 21-6 20-5 24-2 7h-293l-10 2-10 6-6 8-2 6v16l5 10 9 8 10 3h299l3 7 5 20 4 12 4 11v2h-477l-63 1-9 4-6 4-6 9-2 10 1 10 6 12 9 6 9 3h544l14-2 10-4 1-2 5 2 2 4 3 1 5 5v2l4 2 12 11 14 10 14 9 23 11 25 9 7 3 1 42v65l-2 13-5 9-9 10-8 6-12 5-7 1-396 1-9 6-12 11-9 10-8 8-8 7-70 70h-2v2l-8 7-9 9-8 6-6 1-8-6-3-4-1-7-1-120h-73l1 419 9 2 21 5 20 8 17 9 11 8 4 1 8-12 12-16 13-19 11-14 9-7 10-3 9 1 9 4 8 7 5 8 2 6v10l-4 10-11 16-13 18-12 17-13 18 1 5 4 5 10 19 7 18 5 20 3 24v18l-3 27-6 22-5 14-11 21-8 12-7 9-12 14-14 13-15 11-17 10-17 8-18 6-19 4h-4l1 200h1009l1-761h59l1 1v883l-2 22-5 21-6 16-10 19-9 12-9 10-2 3h-2l-1 3-11 9-13 9-17 9-19 7-25 6h-875l-25-7-21-9-16-10-10-8-10-9-12-13-12-18-8-16-7-21-3-14-1-15-1-51v-280l-15-4-19-7-16-8-13-8-12-9-10-9-16-16-11-15-8-13-10-21-6-18-5-24-1-6v-35l4-23 6-21 9-21 12-20 13-17 18-18 19-14 17-10 19-8 25-8v-421h-34l-14-3-10-5-10-9-6-9-4-10-1-16v-385l2-16 6-11 7-8 10-7 9-4 45-1 1-179 2-21 5-19 9-21 9-15 11-14 17-17 14-10 13-8 19-8z" fill="#1FA3FE"/>
<path transform="translate(1574,1018)" d="m0 0h59l1 1v883l-2 22-5 21-6 16-10 19-9 12-9 10-2 3h-2l-1 3-11 9-13 9-17 9-19 7-25 6h-875l-25-7-21-9-16-10-10-8-10-9-12-13-12-18-8-16-7-21-3-14-1-15-1-51v-53l1-227 16 2h44l1 200h1009z" fill="#9458BC"/>
<path transform="translate(1072,921)" d="m0 0h85l45 1 11 2 8 6 1 3 2 34 126 2 8 2 7 5 3 5 1 54v55l1 3 83-1v-1h13l3 1-1 8-14 44-10 31-16 49-7 22-15 47-11 35-10 30-15 47-8 25-1 4 8 1 10 3 17 10 10 8 7 6v2h2l1 4h2l4 8v2h2l4 10 3 9 2 9 1 15-3 18-4 12-6 12-10 13-7 7-5 4-5 2v2h-3v2l-18 8-13 3h-24l-16-4-16-8-12-9-11-11-7-10-6-12-4-11-2-13v-15l3-16 6-15v-3h-38l-240 1-7 1 7 21 2 9v25l-2 3-5 17-9 14-10 12-7 6h-2v2h-3v2h-3v2l-17 8-9 3-6 1h-24l-17-4-16-8-12-9-10-10-7-10-7-14-4-14-1-6v-20l1-9 3-9 6-15 3-5 2-1 1-3h2l2-4 5-6 7-6h2v-2h3v-2l7-4-1-6-4-10-5-16-3-11-3-7-12-38-3-9-5-17-11-33-5-17-6-17-2-9-4-10-5-17-3-10-4-10-1-6-4-10-2-9-4-10-4-12-1-4-6-18-3-12-3-9v-9l5-8h2l2-4 8-4h127l-1-58v-52l3-5 10-6 8-2h54l46 1 23 1v-14l1-22 6-7 10-5z" fill="#FE8286"/>
<path transform="translate(625)" d="m0 0h881l23 6 17 6 19 10 16 12 13 12 10 12 10 15 8 16 6 16 4 18 2 24v809l-1 2h-59l-1-816-3-19-6-15-8-13-9-10-9-8-16-9-10-4-17-3-80-1h-656l-124 1-17 5-14 7-13 10-7 7-9 13-7 15-3 13-1 16-1 173h547l-5 10-10 18-9 21-6 20-5 24-2 7h-293l-10 2-10 6-6 8-2 6v16l5 10 9 8 10 3h299l3 7 5 20 4 12 4 11v2h-477l-63 1-9 4-6 4-6 9-2 10 1 10 6 12 9 6 10 4 5 1 1 49-12 1v2l-9 5-5 5-5 9-1 12 2 9 6 9 9 6 8 2v2h5l1 3 1 25 3 30 2 11 2 10 9 10 4 7v2l-18 1-4 1-55 1-3-1h-32l-14-3-10-5-10-9-6-9-4-10-1-16v-385l2-16 6-11 7-8 10-7 9-4 45-1 1-179 2-21 5-19 9-21 9-15 11-14 17-17 14-10 13-8 19-8z" fill="#1FA3FE"/>
<path transform="translate(510,803)" d="m0 0h53l1 419 9 2 21 5 20 8 17 9 11 8 4 1 8-12 12-16 13-19 11-14 9-7 10-3 9 1 9 4 8 7 5 8 2 6v10l-4 10-11 16-13 18-12 17-13 18 1 5 4 5 10 19 7 18 5 20 3 24v18l-3 27-6 22-5 14-11 21-8 12-7 9-12 14-14 13-15 11-17 10-17 8-18 6-19 4-8 1h-40l-15-2-26-8-19-8-14-8-17-12-12-11-15-15-11-15-8-13-10-21-6-18-5-24-1-6v-35l4-23 6-21 9-21 12-20 13-17 18-18 19-14 17-10 19-8 25-8 1-420z" fill="#0AD295"/>
<path transform="translate(625)" d="m0 0h881l23 6 17 6 19 10 16 12 13 12 10 12 10 15 8 16 6 16 4 18 2 24v809l-1 2h-59l-1-816-3-19-6-15-8-13-9-10-9-8-16-9-10-4-17-3-80-1h-656l-124 1-17 5-14 7-13 10-7 7-9 13-7 15-3 13-1 16-1 173h-61l1-180 2-21 5-19 9-21 9-15 11-14 17-17 14-10 13-8 19-8z" fill="#9458BC"/>
<path transform="translate(1276,227)" d="m0 0h23l20 2 22 5 24 8 24 11 18 11 11 8 13 11 8 7 13 14 12 16 12 20 9 19 8 23 5 23 2 12 1 13v32l-5 30-7 23-8 19-9 17-10 15-10 13-12 13-13 13-14 11-15 10-21 11-20 8-23 7-20 4-14 1h-24l-20-2-19-4v-1l9 1 20 3 22 1 22-1 21-3-3-3-10-2-13-6-17-8-10-6-13-8-13-10-10-9-6-5-7-8-12-13-16-24-10-21-6-15-7-26-4-24-1-9v-17l2-22 6-29 9-27 12-25 11-17 13-16 11-12 15-13 17-12 13-8 23-12 14-5 3-1 16-1v-2l-10-2-18-3h-49l-21 4h-5l4-2 21-4z" fill="#FEDE7A"/>
<path transform="translate(1261,229)" d="m0 0h49l18 3 10 3v2l-16 2-12 4-25 12-22 14-12 9-15 13-12 13-12 16-11 18-11 23-8 25-6 29-2 22v17l3 23 4 18 5 18 9 22 10 19 10 14 6 8 11 12 4 4v2l4 2 9 9 16 12 15 9 16 9 18 8 7 3 9 2 1 3-14 3-7 1-24 1-20-1-24-4-13-2-25-9-19-9-20-12-14-11-12-11-7-6-5-6-5-3-1 3-10 4-14 2h-544l-11-4-8-6-6-12-1-10 2-10 7-10 9-6 6-2 63-1h383l94 1-6-15-8-30-2-6h-299l-10-3-10-9-5-10v-16l3-8 7-8 12-6 7-1h293l5-25 5-19 10-25 10-19 5-8 2-1 3-7 13-16 22-22 16-12 13-8 16-9 17-7 21-7 20-3z" fill="#FED062"/>
<path transform="translate(1633,956)" d="m0 0 1 2h26l11 3 9 7 6 10 1 3v14l-5 10-6 7-7 4-12 2-24 1-59-1v761l-1 1h-1009l-1-1v-200l26-6 15-5 21-10 16-10 14-11 14-13 9-11 8-10 11-18 10-21 7-25 3-20 1-11v-18l-4-29-6-21-9-20-8-14-3-4 1-5 10-13 14-20 13-18 2-1-1 4-1 5 5 5 1 5 1 85v64l-1 14v50l1 24v75l-1 61v24l2 31 1 59v5l2 3 1 8-6 2-1 5 4 4h833l5-2-1-634v-123h-15l-12 35-16 50-21 65-18 57-22 68-18 57-13 41-10 31-13 41-7-6-8-7-13-8-10-5-15-4 1-7 16-50 13-40 16-50 13-41 8-25 18-55 12-38 10-32 1-4-3-1 4-1 21-64 9-29 7-16 7-9 9-7 12-5 5-1 19-1h74z" fill="#D7EAFD"/>
<path transform="translate(503,1577)" d="m0 0 16 2h44v202h169l-1 11v15l2 51v26l1 16 1 18 2 15 1 7 3 8 1 5 1 3 2 2v2l3 7 8 14 12 15 12 13 13 11 13 8 19 10 20 9v1h-217l-25-7-21-9-16-10-10-8-10-9-12-13-12-18-8-16-7-21-3-14-1-15-1-51v-53z" fill="#7E4A9F"/>
<path transform="translate(1072,921)" d="m0 0h85l45 1 11 2 8 6 1 3 2 34 126 2 8 2 7 5 3 5 1 54v55l1 2h-462l-1-59v-52l3-5 10-6 8-2h54l46 1 23 1v-14l1-22 6-7 10-5z" fill="#FED062"/>
<path transform="translate(803,1093)" d="m0 0 8 1 2-1h126l3 3v2l-3 3-2 4v7l4 16 8 27 3 9v4h12l14 7 7 8 3 7v6h2l1 77 1 19 3 5 7 24 10 32 10 31 10 33 14 41 5 15-1 3h-67l-9-12-5-5-9-8-15-9-13-5-13-3h-20l-21 6-9 2-3-7-5-15-5-16-12-36-4-14-11-33-5-17-14-42-2-9-4-10-5-17-3-10-4-10-1-6-4-10-2-9-4-10-4-12-1-4-6-18-3-12-3-9v-9l5-8 5-3 20-2z" fill="#FD6871"/>
<path transform="translate(457,320)" d="m0 0h107l3 2-1 2-1 9-2 16-2 41v18l1 7-2 4h-9v2l-9 4-8 7-4 6-2 12 2 11 6 10 10 6 9 3 7 1-2 2v46l-1 1-7 1-12 6-5 5-5 7-2 10 1 10 6 12 9 6 10 4 5 1 1 49-12 1v2l-9 5-5 5-5 9-1 12 2 9 6 9 9 6 8 2v2h5l1 3 1 25 3 30 2 11 2 10 9 10 4 7v2l-18 1-4 1-55 1-3-1h-32l-14-3-10-5-10-9-6-9-4-10-1-16v-385l2-16 6-11 7-8 10-7z" fill="#0593FE"/>
<path transform="translate(589,802)" d="m0 0h47l1 1 1 120 2 9 7 6 5 1 7-4 12-11 7-7h2v-2l8-7 70-70 2 1-43 43-3 4v2l5-2 9-7 3-1 1 3 1 279 1 16-2 10-1 4v3l-5-4-12-4-9 1-9 4-7 6-26 36-8 11-8 12-4 1-9-7-18-10-17-7-13-4-20-4-3-3v-418z" fill="#D7EBFD"/>
<path transform="translate(709,1184)" d="m0 0 9 1 9 4 8 7 5 8 2 6v10l-4 10-11 16-13 18-12 17-13 18 1 5 4 5 10 19 7 18 5 20 3 24v18l-3 27-6 22-5 14-11 21-8 12-7 9-12 14-14 13-15 11-17 10-12 6h-6l-3-5-9-2-14-10-9-6-8-7-4-3v-2h-2v-2l-4-2-4-4v-2l-4-2-8-10v-2h-2l-12-18-3-8 4-1 9 2-9-5-17-14-4-3v-2l-4-2-13-13-3-1v-2l-4-2-8-7v-2l-4-2-7-6v-2l-4-2-5-5-7-6v-2l-4-1-1-3h-3l-1-4h-3l-4-6-4-4v-2l-2-1-2-3-2-10v-10l5-13h2v-2h2l1-3 5-2v-2l8-3h13l8 4 9 5 14 13 8 7 6 4 4 7 10 10 2 1v2l4 2v2l4 2 8 6 3 3 5 1 6-7 12-17 3-4 2-6 13-17 8-11 10-13 8-11 13-18 12-16 14-19 5-9v-3l4 1 8-12 12-16 13-19 11-14 9-7z" fill="#07C38C"/>
<path transform="translate(635,60)" d="m0 0h124l1 2-4 2-5 12-5 10-6 18-3 16-1 18-3 48v98l3 7 2 7 8 3 1 4-5 4-7 3-1 3 7 2 34 1h335l1 4-2 1v-2l-546-1v-173l1-16 3-13 8-17 10-13 8-8 13-9 14-7z" fill="#D6EAFD"/>
<path transform="translate(1633,956)" d="m0 0 1 2h26l11 3 9 7 6 10 1 3v14l-5 10-6 7-7 4-12 2-24 1h-76l-12 35-16 50-21 65-18 57-22 68-18 57-13 41-10 31-13 41-7-6-8-7-13-8-10-5-15-4 1-7 16-50 13-40 16-50 13-41 8-25 18-55 12-38 10-32 1-4-3-1 4-1 21-64 9-29 7-16 7-9 9-7 12-5 5-1 19-1h74z" fill="#CBC0BB"/>
<path transform="translate(702,641)" d="m0 0h233l171 1 10 3 9 7 5 8 2 8v10l-4 9-7 8-8 5-9 2-39 1h-434l-78-1-10-3-9-7-5-8-2-9 1-12 5-9 5-5 8-5 6-2z" fill="#FCFDFD"/>
<path transform="translate(1090,526)" d="m0 0 2 1 6 15 8 14 8 12 11 13 2 3-5-2-1 3-10 4-14 2h-544l-11-4-8-6-6-12-1-10 2-10 7-10 9-6 6-2 63-1h383l94 1z" fill="#FCFDFD"/>
<path transform="translate(1284,294)" d="m0 0 11 1 10 5 8 9 4 11 1 13 28 1 10 3 8 7 5 9 3 10-1 9-4 8-7 8-10 5-5 1-81 1-5 3-1 2v7l5 4 45 1 18 2 13 5 12 7 10 10 10 16 5 13 2 10v14l-4 16-8 14-7 9-10 9-14 8-11 4-7 1v16l-4 10-6 7-9 5-6 2h-10l-10-4-9-8-3-5-3-12-1-10-23-1-10-2-8-4-5-5-5-7-2-9v-7l3-10 4-6 7-6 7-3 6-1 80-1 5-2 1-2v-8l-2-3-3-1-46-1-17-2-13-5-11-7-10-9-7-10-6-13-3-9-1-7v-16l2-10 7-16 7-10 4-5 13-9 14-7 12-3 2-18 5-10 9-8 7-3z" fill="#E99E62"/>
<path transform="translate(625)" d="m0 0h223l-1 2-30 12-9 6-13 8-11 8-12 11-8 7-1 3 3 1-7 2-124 1-17 5-14 7-13 10-7 7-9 13-7 15-3 13-1 16-1 173h-61l1-180 2-21 5-19 9-21 9-15 11-14 17-17 14-10 13-8 19-8z" fill="#7E4A9F"/>
<path transform="translate(1072,921)" d="m0 0h85l45 1 11 2 8 6 1 3 2 34 126 2 8 2 7 5 3 5 1 54v55l1 2h-22l-60-1-1-98v-23h-64l-3-6 1 5-1 2 2 1 1 7v107l-2 5h-98l-2-1-1-10-1-92v-17l1-34 1-7 5-4 1-3h-48l-14 1 3-2z" fill="#FEDE7A"/>
<path transform="translate(687,1302)" d="m0 0h2l7 10 10 21 5 13 5 20 3 24v18l-3 27-6 22-5 14-11 21-8 12-7 9-12 14-14 13-15 11-17 10-12 6h-6l-3-5-9-2-14-10-9-6-8-7-4-3v-2h-2v-2l-4-2-4-4v-2l-4-2-8-10v-2h-2l-12-18-3-8 4-1 11 3h12l11-4 5-2 2-4 4-5h2l2-5 10-15h2l2-5 13-18 8-11 10-14 7-10 13-18 7-10 9-12 10-14 16-22 7-9 1-3z" fill="#03DFA0"/>
<path transform="translate(510,803)" d="m0 0h53l1 420h-7l-5-1h-26l-12 2h-11v-420z" fill="#7E4A9F"/>
<path transform="translate(1344,1432)" d="m0 0h9l16 3 10 3 17 10 10 8 7 6v2h2l1 4h2l4 8v2h2l4 10 3 9 2 9 1 15-3 18-4 12-6 12-10 13-7 7-5 4-5 2v2h-3v2l-18 8-13 3h-24l-16-4-16-8-12-9-11-11-7-10-6-12-4-11-2-13v-15l3-16 6-15 7-11 9-10 11-10 13-8 16-6z" fill="#9D9899"/>
<path transform="translate(899,1433)" d="m0 0h20l19 5 16 8 12 9 7 6 12 16 6 16 4 16v25l-2 3-5 17-9 14-10 12-7 6h-2v2h-3v2h-3v2l-17 8-9 3-6 1h-24l-17-4-16-8-12-9-10-10-7-10-7-14-4-14-1-6v-20l1-9 3-9 6-15 3-5 2-1 1-3h2l2-4 5-6 7-6h2v-2h3v-2l7-4 10-4z" fill="#9D9899"/>
<path transform="translate(780,419)" d="m0 0h294l-1 6v28l3 22 1 7-2-2h-299l-10-3-10-9-5-10v-16l3-8 7-8 12-6z" fill="#FCFDFD"/>
<path transform="translate(986,1852)" d="m0 0h195l19 1 6 3 7 8 1 3 2 1 2 10 1 3-2 11-3 6h-2v3h-2l-1 3-11 5-7 1-40 1h-171l-35-1-11-2-8-6-5-10-2-11 2-11 5-9h2v-2l10-5 6-1z" fill="#A769D4"/>
<path transform="translate(1233,1476)" d="m0 0h38l2 2-6 14-3 12-1 7v15l1 3v7l-13-1h-250l-7-2v-24l-5-19-4-10 1-2 7-1z" fill="#CABFBB"/>
<path transform="translate(1344,1432)" d="m0 0h9l16 3 10 3v3l-10 6-10 9-5 5-8 9-8 14-5 14-2 13v16l3 15 5 13 8 14 11 12 11 9 7 5 5 1-3 3-12 4-6 1h-24l-16-4-16-8-12-9-11-11-7-10-6-12-4-11-2-13v-15l3-16 6-15 7-11 9-10 11-10 13-8 16-6z" fill="#7B7477"/>
<path transform="translate(899,1433)" d="m0 0h20l19 5v3l-12 8-11 10-11 14-8 16-3 9-2 12v18l3 14 5 13 7 12 9 11 12 11 9 6 4 2v2l-12 4-6 1h-24l-17-4-16-8-12-9-10-10-7-10-7-14-4-14-1-6v-20l1-9 3-9 6-15 3-5 2-1 1-3h2l2-4 5-6 7-6h2v-2h3v-2l7-4 10-4z" fill="#7B7477"/>
<path transform="translate(601,1234)" d="m0 0h6l17 8 13 8 4 3 1 3 2 2h-2l-2 5-13 18-10 13-8 11-10 14-18 24-14 19-8 10-4 7-8 10-7 9-4 5-5-1v-2l-6-3v-2h-3l-6-7-3-2v-2l-5-2v-2h-3l-4-4-2-10 6-24 5-12 8-16 10-16 8-11h2l2-4 16-16h2v-2l14-10 11-8 16-9 3-1z" fill="#03DFA0"/>
<path transform="translate(614,419)" d="m0 0h73l13 2 8 4 7 7 4 8 1 5v11l-4 9-7 8-8 5-14 2h-134l-11-4-7-5-6-10-2-12 2-11 4-6 7-7 8-4 3-1z" fill="#FCFDFD"/>
<path transform="translate(952,1169)" d="m0 0h13l10 4 7 6 5 8 2 9 1 108-1 28-4 10-9 10-8 4-3 1h-11l-10-4-9-7-5-10-1-6v-138l4-10 7-7 9-5z" fill="#E4222F"/>
<path transform="translate(1068,1169)" d="m0 0h12l10 4 9 8 5 12 1 22v47l-1 70-4 10-7 8-8 5-6 2h-10l-9-4-8-6-5-7-3-11v-132l2-10 6-9 8-6z" fill="#E4222F"/>
<path transform="translate(1183,1169)" d="m0 0h11l9 3 6 4 7 8 3 10 1 27v97l-1 15-4 10-5 6-10 6-7 2h-8l-12-5-6-5-5-7-2-6-1-11v-121l1-11 4-9 5-6 10-6z" fill="#E4222F"/>
<path transform="translate(1298,1169)" d="m0 0h12l9 3 10 9 4 8 1 4 1 70v58l-2 16-6 10-6 5-8 4-4 1h-8l-10-3-9-7-5-8-2-6-1-111 1-31 5-10 7-7 8-4z" fill="#E4222F"/>
<path transform="translate(1053,932)" d="m0 0h1l-1 38-2 6 1 13v85l-1 15-1 2h-74l-1-2v-95l1-21 1-2h-53l-8 4-6 4v113l-2-1-1-58v-52l3-5 10-6 8-2h54l46 1 23 1v-14l1-22z" fill="#FEDE7A"/>
<path transform="translate(668,135)" d="m0 0h12l12 6 8 9 4 10v11l-5 10-8 9-10 5-3 1h-8l-9-4-9-7-6-9-2-5v-12l3-8 4-6 8-7z" fill="#20A4FE"/>
<path transform="translate(1462,134)" d="m0 0 11 2 9 5 8 9 4 11v7l-4 11-7 9-10 6-6 2h-7l-10-4-10-9-4-6-2-6v-12l4-10 7-8 9-5z" fill="#20A4FE"/>
<path transform="translate(786,134)" d="m0 0 11 2 8 4 7 7 5 9 1 5v8l-4 10-7 9-10 6-6 2h-7l-14-7-8-9-4-10v-11l3-9 9-10 8-4z" fill="#20A4FE"/>
<path transform="translate(1072,411)" d="m0 0h1v7l-3 1h-273l-3-2 11-1 24-1h129l8 1h66l6-1v2h2l1-2h3v2l4-1h19l4-2z" fill="#0593FE"/>
<path transform="translate(1571,1670)" d="m0 0h1v106l-4 3-6-2-2-5 5-5 2-3 1-13 1-5v-28l1-9z" fill="#FEFEFE"/>
<path transform="translate(1363,980)" d="m0 0 3 3 1 36v26h-2l-1-2-3-26-2-34 2-2z" fill="#FFD062"/>
<path transform="translate(526,1221)" d="m0 0h26l14 2v1h-16l-4 2v2l-5 1v4h-7l-9-3-2-1v-2l-7-2h-14v-1l18-2z" fill="#07C28D"/>
<path transform="translate(1470,338)" d="m0 0h3l8 16 7 17 5 17 5 27v9l-2-4-3-9-1-13-4-10-3-12-3-5-6-17-4-9-2-4z" fill="#FFD062"/>
<path transform="translate(781,1091)" d="m0 0h126v1l-20 1-1 1h-74l-4 1-5-1-20 2-9 1h-3l5-4z" fill="#FE9884"/>
<path transform="translate(664,414)" d="m0 0 13 1 22 3 1 2-105-2v-1l53-1z" fill="#0593FE"/>
<path transform="translate(1235,650)" d="m0 0 5 1-1 4-1 107-1 5h-1v-74z" fill="#D6EAFD"/>
<path transform="translate(1482,352)" d="m0 0 3 1 3 8 3 3 2 7 2 4 2 8 1 2v11h-2l-9-29-5-12z" fill="#FDFDFD"/>
<path transform="translate(791,806)" d="m0 0 2 1-32 32v-3l13-13 7-8z" fill="#E1F2FD"/>
<path transform="translate(781,1091)" d="m0 0 26 1-4 2-20 2-9 1h-3l5-4z" fill="#FE8E85"/>
<path transform="translate(505,1576)" d="m0 0 7 1 45 1 2 2h-40l-15-2z" fill="#07C38C"/>
<path transform="translate(422,1535)" d="m0 0 8 2v2h2l2 5 5 2 5 3 3 5-5-2-14-10-6-5z" fill="#05DBA6"/>
<path transform="translate(984,1476)" d="m0 0h65v1l-56 1-7 1z" fill="#FE9285"/>
<path transform="translate(1218,935)" d="m0 0h2l1 4v17l-3-4-1-2v-13z" fill="#FFD062"/>
<path transform="translate(1178,628)" d="m0 0 6 1 11 6v2l-5-1-12-7z" fill="#0E99FE"/>
<path transform="translate(1497,400)" d="m0 0h2l1 2 1 11v7l-2-3-2-12z" fill="#FCFDFD"/>
<path transform="translate(1371,248)" d="m0 0 6 1 11 5v2l-5-1-9-4z" fill="#FFD062"/>
<path transform="translate(638,1249)" d="m0 0h9v3l-4 2z" fill="#E6F6FD"/>
<path transform="translate(1485,138)" d="m0 0 6 3-1 5-3-1v-2l-3-1z" fill="#FEFEFE"/>
<path transform="translate(1032,972)" d="m0 0h9l-1 3-6 1v-2h-2z" fill="#FFD062"/>
</svg>
